<svg xmlns="http://www.w3.org/2000/svg" width="25.815" height="28" viewBox="0 0 25.815 28">
  <g id="Grupo_57" data-name="Grupo 57" transform="translate(-12502.428 499.226)">
    <path id="Trazado_325" data-name="Trazado 325" d="M12519.067-472.179l6.722-2.483,6.277,2.239-6.277,2.688Z" transform="translate(-10.544 -15.566)" fill="#888"/>
    <path id="Trazado_326" data-name="Trazado 326" d="M12518.04-466.428l-.01,7.3,6.538,2.547.015-7.462Z" transform="translate(-9.887 -20.783)" fill="#888"/>
    <path id="Trazado_327" data-name="Trazado 327" d="M12538.08-464.172v7.428l6.6-2.521v-7.371Z" transform="translate(-22.592 -20.652)" fill="#888"/>
    <path id="Unión_1" data-name="Unión 1" d="M0,15.759c-.064-2.5.468-4.6,2.481-7.611C.846,11.072.1,12.992.237,15.759a12.681,12.681,0,0,0,5.319,9.653q-.466-.353-.9-.749A12.156,12.156,0,0,0,20.815,6.549q-.129-.129-.262-.255a12.869,12.869,0,0,0-8.159-3.043,14.539,14.539,0,0,0-3.2.4L11.357,4.7l-1.949.613-3.14-1.39L7.689.79,9.68,0S8.917,1.709,8.9,1.717c8.018-1.491,15.532,3.1,16.713,11.356a12.72,12.72,0,0,1,.2,2.251,12.629,12.629,0,0,1-12.64,12.64h-.182c-.319.024-.61.035-.869.038C7.669,28,.111,23.987,0,15.759Z" transform="translate(12502.428 -499.226)" fill="#888"/>
  </g>
</svg>
