<svg xmlns="http://www.w3.org/2000/svg" width="30.656" height="27.25" viewBox="0 0 30.656 27.25">
  <path id="ico_cart" data-name="ico cart" d="M28.108,16.037l2.516-11.07a1.277,1.277,0,0,0-1.246-1.56H8.473L7.986,1.021A1.277,1.277,0,0,0,6.734,0H1.277A1.277,1.277,0,0,0,0,1.277v.852A1.277,1.277,0,0,0,1.277,3.406H5L8.735,21.685a2.981,2.981,0,1,0,3.568.456H23.462a2.98,2.98,0,1,0,3.385-.554l.294-1.292a1.277,1.277,0,0,0-1.246-1.56H11.609l-.348-1.7h15.6A1.277,1.277,0,0,0,28.108,16.037Z" fill="#44d62c"/>
</svg>
