<svg xmlns="http://www.w3.org/2000/svg" width="18.461" height="18.461" viewBox="0 0 18.461 18.461">
  <path id="instagram-square-brands" d="M9.23,39.032a2.2,2.2,0,1,0,2.2,2.2A2.2,2.2,0,0,0,9.23,39.032Zm5.139-1.689a2.225,2.225,0,0,0-1.253-1.253,14.624,14.624,0,0,0-3.886-.265,14.515,14.515,0,0,0-3.886.265,2.225,2.225,0,0,0-1.253,1.253,14.653,14.653,0,0,0-.265,3.887,14.6,14.6,0,0,0,.267,3.887,2.225,2.225,0,0,0,1.253,1.253,14.626,14.626,0,0,0,3.886.265,14.511,14.511,0,0,0,3.886-.265,2.225,2.225,0,0,0,1.253-1.253,14.533,14.533,0,0,0,.265-3.887,14.541,14.541,0,0,0-.265-3.887ZM9.23,44.609a3.375,3.375,0,1,1,2.391-.988A3.379,3.379,0,0,1,9.23,44.609ZM12.749,38.5a.784.784,0,1,1,.559-.23.789.789,0,0,1-.559.23ZM16.483,32H1.978A1.978,1.978,0,0,0,0,33.978v14.5a1.978,1.978,0,0,0,1.978,1.978h14.5a1.978,1.978,0,0,0,1.978-1.978v-14.5A1.978,1.978,0,0,0,16.483,32Zm-.705,11.95a3.921,3.921,0,0,1-1.065,2.761,3.923,3.923,0,0,1-2.761,1.065c-1.088.061-4.351.061-5.439,0a3.928,3.928,0,0,1-2.761-1.065A3.909,3.909,0,0,1,2.686,43.95c-.061-1.089-.061-4.352,0-5.439A3.908,3.908,0,0,1,3.751,35.75a3.93,3.93,0,0,1,2.761-1.062c1.088-.061,4.351-.061,5.439,0a3.923,3.923,0,0,1,2.761,1.065,3.923,3.923,0,0,1,1.065,2.763C15.839,39.6,15.839,42.861,15.777,43.95Z" transform="translate(0 -32)" fill="#44d62c"/>
</svg>
