<svg id="Grupo_46" data-name="Grupo 46" xmlns="http://www.w3.org/2000/svg" width="28" height="17.733" viewBox="0 0 28 17.733">
  <path id="Trazado_320" data-name="Trazado 320" d="M455.26,395.756a2.38,2.38,0,1,0,2.38,2.38A2.383,2.383,0,0,0,455.26,395.756Zm0,3.08a.7.7,0,1,1,.7-.7A.7.7,0,0,1,455.26,398.836Z" transform="translate(-432.16 -382.783)" fill="#888"/>
  <path id="Trazado_321" data-name="Trazado 321" d="M402.472,179.518H398.36a.56.56,0,0,0-.56.56V191a.56.56,0,0,0,.56.56h.594a.558.558,0,0,0,.559-.475,3.227,3.227,0,0,1,6.376,0,.558.558,0,0,0,.559.475h.593a.56.56,0,0,0,.56-.56v-5.46a.559.559,0,0,0-.13-.359l-4.568-5.46A.56.56,0,0,0,402.472,179.518ZM398.92,184v-2.8a.56.56,0,0,1,.56-.56h2.467a.56.56,0,0,1,.43.2l2.333,2.8a.56.56,0,0,1-.43.918h-4.8A.56.56,0,0,1,398.92,184Z" transform="translate(-379.6 -176.438)" fill="#888"/>
  <path id="Trazado_322" data-name="Trazado 322" d="M.56,127.324H1.994a.558.558,0,0,0,.559-.475,3.087,3.087,0,0,1,3.188-2.728,3.087,3.087,0,0,1,3.188,2.728.558.558,0,0,0,.559.475H16.52a.56.56,0,0,0,.56-.56v-14a.56.56,0,0,0-.56-.56H.56a.56.56,0,0,0-.56.56v14A.56.56,0,0,0,.56,127.324Z" transform="translate(0 -112.204)" fill="#888"/>
  <path id="Trazado_323" data-name="Trazado 323" d="M75.82,395.756a2.38,2.38,0,1,0,2.38,2.38A2.383,2.383,0,0,0,75.82,395.756Zm0,3.08a.7.7,0,1,1,.7-.7A.7.7,0,0,1,75.82,398.836Z" transform="translate(-70.08 -382.783)" fill="#888"/>
</svg>
