<svg xmlns="http://www.w3.org/2000/svg" width="18.461" height="18.461" viewBox="0 0 18.461 18.461">
  <path id="twitter-square-brands" d="M16.483,32H1.978A1.978,1.978,0,0,0,0,33.978v14.5a1.978,1.978,0,0,0,1.978,1.978h14.5a1.978,1.978,0,0,0,1.978-1.978v-14.5A1.978,1.978,0,0,0,16.483,32Zm-2.015,6.544c.008.115.008.235.008.35a7.637,7.637,0,0,1-7.689,7.689,7.654,7.654,0,0,1-4.15-1.211,5.694,5.694,0,0,0,.651.033,5.418,5.418,0,0,0,3.354-1.154,2.706,2.706,0,0,1-2.526-1.875,2.913,2.913,0,0,0,1.22-.049,2.7,2.7,0,0,1-2.163-2.654V39.64a2.7,2.7,0,0,0,1.22.342,2.7,2.7,0,0,1-1.2-2.25,2.669,2.669,0,0,1,.367-1.364,7.674,7.674,0,0,0,5.571,2.827,2.708,2.708,0,0,1,4.611-2.468,5.3,5.3,0,0,0,1.714-.651,2.7,2.7,0,0,1-1.187,1.488,5.378,5.378,0,0,0,1.558-.42A5.689,5.689,0,0,1,14.468,38.544Z" transform="translate(0 -32)" fill="#44d62c"/>
</svg>
